<svg width="775" height="235" viewBox="0 0 775 235" fill="none" xmlns="http://www.w3.org/2000/svg">
<rect width="22.0663" height="118.129" transform="matrix(0.714321 0.699819 -0.738016 0.674783 517.26 70.7703)" fill="#2C22B6"/>
<path d="M511.136 146.313C511.136 144.558 513.081 143.501 514.554 144.457L536.334 158.59C537.679 159.462 537.679 161.43 536.334 162.303L514.554 176.436C513.081 177.392 511.136 176.335 511.136 174.58V170.124H430.23V150.649H511.136V146.313Z" fill="url(#paint0_linear_909_95)"/>
<path d="M452.206 90.4831C452.206 92.2383 450.26 93.295 448.788 92.3396L427.008 78.2058C425.663 77.3333 425.663 75.3654 427.008 74.4929L448.788 60.3601C450.26 59.4047 452.206 60.4614 452.206 62.2165V66.5525H533.113V86.0271H452.206V90.4831Z" fill="url(#paint1_linear_909_95)"/>
<path d="M80.4095 80.952V167H66.3033V80.952H38.2319V68.2564H108.481V80.952H80.4095ZM166.403 127.644H145.103V167H130.997V68.2564H181.638L198.001 77.7076V118.192L181.638 127.644L204.349 167H188.691L166.403 127.644ZM145.103 80.952V114.948H183.895V80.952H145.103ZM271.957 68.2564L307.222 167H293.398L285.075 143.584H241.346L233.023 167H219.199L254.465 68.2564H271.957ZM263.07 82.2216L245.86 130.888H280.561L263.352 82.2216H263.07ZM342.496 92.3781V167H328.39V68.2564H341.227L392.291 142.878H392.574V68.2564H406.68V167H393.843L342.779 92.3781H342.496Z" fill="#323232"/>
<path d="M629.753 157.254L613.39 166.705H572.059L555.696 157.254V76.0023L572.059 66.5511H613.39L629.753 76.0023V157.254ZM569.802 79.2467V154.01H615.647V79.2467H569.802ZM696.205 126.644H674.904V166H660.798V67.2564H711.439L727.803 76.7076V117.192L711.439 126.644L734.15 166H718.492L696.205 126.644ZM674.904 79.952V113.948H713.696V79.952H674.904Z" fill="#323232"/>
<defs>
<linearGradient id="paint0_linear_909_95" x1="430.23" y1="160.447" x2="521.712" y2="160.519" gradientUnits="userSpaceOnUse">
<stop offset="0.352338" stop-color="#584DE9"/>
<stop offset="1" stop-color="#9B95ED" stop-opacity="0.79"/>
</linearGradient>
<linearGradient id="paint1_linear_909_95" x1="533.113" y1="76.3499" x2="441.63" y2="76.2777" gradientUnits="userSpaceOnUse">
<stop offset="0.352338" stop-color="#584DE9"/>
<stop offset="1" stop-color="#9B95ED" stop-opacity="0.79"/>
</linearGradient>
</defs>
</svg>
